%
M48
M72
T01C0.0236
T02C0.0315
T03C0.0320
T04C0.0400
T05C0.0440
T06C0.0520
T07C0.0866
%
T01
X10229Y7713
X12315Y9800
X28772Y19209
X28772Y22044
T02
X24544Y16761
X23544Y16761
X22544Y16761
X21544Y16761
X20544Y16761
X19544Y16761
X18544Y16761
X17544Y16761
X16544Y16761
X15544Y16761
X14544Y16761
X13544Y16761
X12544Y16761
X11544Y16761
X10544Y16761
X9544Y16761
X8544Y16761
X7544Y16761
X6544Y16761
X5544Y16761
X4544Y16761
X3544Y16761
X3544Y15761
X3544Y14761
X3544Y13761
X3544Y12761
X3544Y11761
X3544Y10761
X3544Y9761
X3544Y8761
X3544Y7761
X3544Y6761
X3544Y5761
X4544Y5761
X5544Y5761
X6544Y5761
X7544Y5761
X8544Y5761
X9544Y5761
X10544Y5761
X11544Y5761
X12544Y5761
X13544Y5761
X14544Y5761
X15544Y5761
X16544Y5761
X17544Y5761
X18544Y5761
X19544Y5761
X20544Y5761
X21544Y5761
X22544Y5761
X23544Y5761
X24544Y5761
T03
X20544Y6804
X19559Y6804
X19559Y9804
X20544Y9804
X18540Y14367
X19563Y15548
X16563Y15548
X15540Y14367
X8737Y12753
X7556Y13934
X5737Y12753
X4556Y13934
T04
X3693Y17812
X3693Y18812
X3693Y19812
X3693Y20812
X3693Y21812
X3693Y22812
X8150Y21261
X8150Y20261
X8150Y19261
X10863Y19261
X10863Y20261
X10863Y21261
X13426Y21272
X13426Y20272
X15725Y20261
X16725Y20261
X19681Y20343
X19681Y19343
X19681Y18343
X19681Y21343
X25933Y21205
X25933Y19205
X21544Y3261
X21544Y2261
X21544Y1261
X19044Y1261
X19044Y2261
X19044Y3261
X16544Y3261
X16544Y2261
X16544Y1261
X14044Y1261
X14044Y2261
X14044Y3261
X11544Y3261
X11544Y2261
X11544Y1261
X7532Y3107
X6532Y3107
X5532Y3107
X4532Y3107
X3532Y3107
X2532Y3107
X24363Y2261
X25363Y2261
X26363Y2261
X27363Y2261
X31213Y2761
X31213Y1761
T05
X31150Y13548
X31150Y17548
T06
X31150Y19215
X31150Y21195
T07
X1331Y1335
X34008Y1335
X34008Y22595
M30
