G75*
G70*
%OFA0B0*%
%FSLAX24Y24*%
%IPPOS*%
%LPD*%
%AMOC8*
5,1,8,0,0,1.08239X$1,22.5*
%
%ADD10C,0.0760*%
%ADD11C,0.0660*%
%ADD12C,0.0780*%
%ADD13C,0.0600*%
%ADD14C,0.1000*%
%ADD15OC8,0.1000*%
%ADD16OC8,0.0520*%
%ADD17C,0.0400*%
%ADD18C,0.0160*%
%ADD19C,0.1266*%
D10*
X003544Y005761D03*
X004544Y005761D03*
X005544Y005761D03*
X006544Y005761D03*
X007544Y005761D03*
X008544Y005761D03*
X009544Y005761D03*
X010544Y005761D03*
X011544Y005761D03*
X012544Y005761D03*
X013544Y005761D03*
X014544Y005761D03*
X015544Y005761D03*
X016544Y005761D03*
X017544Y005761D03*
X018544Y005761D03*
X019544Y005761D03*
X020544Y005761D03*
X021544Y005761D03*
X022544Y005761D03*
X023544Y005761D03*
X024544Y005761D03*
X010229Y007713D03*
X003544Y007761D03*
X003544Y008761D03*
X003544Y009761D03*
X003544Y010761D03*
X003544Y011761D03*
X003544Y012761D03*
X003544Y013761D03*
X003544Y014761D03*
X003544Y015761D03*
X003544Y016761D03*
X004544Y016761D03*
X005544Y016761D03*
X006544Y016761D03*
X007544Y016761D03*
X008544Y016761D03*
X009544Y016761D03*
X010544Y016761D03*
X011544Y016761D03*
X012544Y016761D03*
X013544Y016761D03*
X014544Y016761D03*
X015544Y016761D03*
X016544Y016761D03*
X017544Y016761D03*
X018544Y016761D03*
X019544Y016761D03*
X020544Y016761D03*
X021544Y016761D03*
X022544Y016761D03*
X023544Y016761D03*
X024544Y016761D03*
X003544Y006761D03*
D11*
X012315Y009800D03*
X028772Y019209D03*
X031150Y017548D03*
X031150Y013548D03*
X028772Y022044D03*
D12*
X030760Y021195D02*
X031540Y021195D01*
X031540Y019215D02*
X030760Y019215D01*
D13*
X019981Y019343D02*
X019381Y019343D01*
X019381Y018343D02*
X019981Y018343D01*
X019981Y020343D02*
X019381Y020343D01*
X019381Y021343D02*
X019981Y021343D01*
X016725Y020561D02*
X016725Y019961D01*
X015725Y019961D02*
X015725Y020561D01*
X013726Y020272D02*
X013126Y020272D01*
X013126Y021272D02*
X013726Y021272D01*
X011163Y021261D02*
X010563Y021261D01*
X010563Y020261D02*
X011163Y020261D01*
X011163Y019261D02*
X010563Y019261D01*
X008450Y019261D02*
X007850Y019261D01*
X007850Y020261D02*
X008450Y020261D01*
X008450Y021261D02*
X007850Y021261D01*
X003993Y020812D02*
X003393Y020812D01*
X003393Y021812D02*
X003993Y021812D01*
X003993Y022812D02*
X003393Y022812D01*
X003393Y019812D02*
X003993Y019812D01*
X003993Y018812D02*
X003393Y018812D01*
X003393Y017812D02*
X003993Y017812D01*
X003532Y003407D02*
X003532Y002807D01*
X002532Y002807D02*
X002532Y003407D01*
X004532Y003407D02*
X004532Y002807D01*
X005532Y002807D02*
X005532Y003407D01*
X006532Y003407D02*
X006532Y002807D01*
X007532Y002807D02*
X007532Y003407D01*
X011244Y003261D02*
X011844Y003261D01*
X011844Y002261D02*
X011244Y002261D01*
X011244Y001261D02*
X011844Y001261D01*
X013744Y001261D02*
X014344Y001261D01*
X014344Y002261D02*
X013744Y002261D01*
X013744Y003261D02*
X014344Y003261D01*
X016244Y003261D02*
X016844Y003261D01*
X016844Y002261D02*
X016244Y002261D01*
X016244Y001261D02*
X016844Y001261D01*
X018744Y001261D02*
X019344Y001261D01*
X019344Y002261D02*
X018744Y002261D01*
X018744Y003261D02*
X019344Y003261D01*
X021244Y003261D02*
X021844Y003261D01*
X021844Y002261D02*
X021244Y002261D01*
X021244Y001261D02*
X021844Y001261D01*
X024363Y001961D02*
X024363Y002561D01*
X025363Y002561D02*
X025363Y001961D01*
X026363Y001961D02*
X026363Y002561D01*
X027363Y002561D02*
X027363Y001961D01*
X030913Y001761D02*
X031513Y001761D01*
X031513Y002761D02*
X030913Y002761D01*
D14*
X025933Y021205D03*
D15*
X025933Y019205D03*
D16*
X019563Y015548D03*
X018540Y014367D03*
X016563Y015548D03*
X015540Y014367D03*
X019559Y009804D03*
X020544Y009804D03*
X020544Y006804D03*
X019559Y006804D03*
X008737Y012753D03*
X007556Y013934D03*
X005737Y012753D03*
X004556Y013934D03*
D17*
X004556Y012198D01*
X004126Y011768D01*
X003552Y011768D01*
X003544Y011761D01*
X002717Y011761D01*
X002119Y012359D01*
X002119Y021414D01*
X002516Y021812D01*
X003693Y021812D01*
X003634Y022753D02*
X002276Y022753D01*
X001331Y021808D01*
X001331Y011572D01*
X002119Y010784D01*
X003520Y010784D01*
X003544Y010761D01*
X003567Y010784D01*
X004481Y010784D01*
X005737Y012040D01*
X005737Y012753D01*
X006056Y013934D02*
X006056Y019052D01*
X007264Y020261D01*
X008150Y020261D01*
X010863Y020261D01*
X010863Y021261D02*
X010874Y021272D01*
X013426Y021272D01*
X014198Y022044D01*
X017473Y022044D01*
X017473Y021020D01*
X018150Y020343D01*
X019681Y020343D01*
X019681Y019343D02*
X018945Y019343D01*
X018654Y019052D01*
X018654Y016871D01*
X018544Y016761D01*
X018544Y014371D01*
X018540Y014367D01*
X019563Y015548D02*
X019544Y015568D01*
X019544Y016761D01*
X019681Y016898D01*
X019681Y018343D01*
X016685Y019902D02*
X016685Y020233D01*
X016685Y019902D02*
X013544Y016761D01*
X012544Y016761D02*
X012544Y017079D01*
X015725Y020261D01*
X013426Y020272D02*
X013426Y019729D01*
X011567Y017871D01*
X011567Y016690D01*
X010544Y016761D02*
X010544Y018942D01*
X010863Y019261D01*
X009544Y018261D02*
X009544Y016761D01*
X009544Y018261D02*
X008150Y019261D01*
X006056Y019052D02*
X005268Y019839D01*
X003705Y019839D01*
X003689Y020824D02*
X004756Y020824D01*
X005193Y021261D01*
X008150Y021261D01*
X010863Y021261D01*
X004874Y018658D02*
X004874Y017091D01*
X004544Y016761D01*
X003544Y016761D02*
X003544Y017662D01*
X003693Y017812D01*
X004721Y018812D02*
X004874Y018658D01*
X004721Y018812D02*
X003693Y018812D01*
X003634Y022753D02*
X003693Y022812D01*
X013926Y012753D02*
X015540Y014367D01*
X016760Y013146D01*
X022591Y013146D01*
X019559Y010115D01*
X019559Y009804D01*
X019556Y009800D01*
X012315Y009800D01*
X011961Y008028D02*
X006056Y013934D01*
X007556Y013934D02*
X008737Y012753D01*
X013926Y012753D01*
X015540Y014367D02*
X016563Y015391D01*
X016563Y015548D01*
X022591Y013146D02*
X023544Y014099D01*
X023544Y016761D01*
X024544Y016761D02*
X027363Y013942D01*
X027363Y002261D01*
X026370Y002253D02*
X026363Y002261D01*
X026363Y003863D01*
X025347Y004879D01*
X023811Y004879D01*
X023536Y005154D01*
X023536Y005753D01*
X023544Y005761D01*
X022544Y005761D01*
X021544Y005761D01*
X020622Y005682D02*
X020622Y005272D01*
X021016Y004879D01*
X022591Y004879D01*
X023378Y004091D01*
X024953Y004091D01*
X025363Y003682D01*
X025363Y002261D01*
X024363Y002261D02*
X022532Y004091D01*
X021016Y004091D01*
X019544Y005564D01*
X019544Y005761D01*
X019544Y006788D01*
X019559Y006804D01*
X020544Y006804D02*
X020544Y005761D01*
X020622Y005682D01*
X018544Y005761D02*
X021044Y003261D01*
X021544Y003261D01*
X021544Y002261D02*
X019044Y002261D01*
X019044Y003261D02*
X017544Y004761D01*
X017544Y005761D01*
X016544Y005761D02*
X016544Y003261D01*
X015544Y004761D02*
X015544Y005761D01*
X014544Y005761D02*
X012044Y003261D01*
X011544Y003261D01*
X011544Y002261D02*
X008378Y002261D01*
X007532Y003107D01*
X008024Y003599D01*
X008024Y007241D01*
X008496Y007713D01*
X010229Y007713D01*
X011961Y008028D02*
X022985Y008028D01*
X024544Y006469D01*
X024544Y005761D01*
X026370Y002253D02*
X026370Y001335D01*
X026445Y001261D01*
X029284Y001261D01*
X029284Y001257D02*
X029284Y015115D01*
X025933Y018465D01*
X025933Y019205D01*
X028772Y019205D01*
X028772Y019209D01*
X031150Y019215D02*
X031150Y017548D01*
X031150Y021195D02*
X025943Y021195D01*
X025933Y021205D01*
X025796Y021343D01*
X019681Y021343D01*
X017473Y022044D02*
X028772Y022044D01*
X025933Y021205D02*
X025926Y021205D01*
X024559Y019839D01*
X024559Y016776D01*
X024544Y016761D01*
X031150Y013548D02*
X031213Y013485D01*
X031213Y002761D01*
X031252Y001729D02*
X030780Y001257D01*
X029284Y001257D01*
X026445Y001261D02*
X021544Y001261D01*
X019044Y001261D01*
X016544Y001261D01*
X014044Y001261D01*
X011544Y001261D01*
X003768Y001261D01*
X002512Y002516D01*
X002512Y003087D01*
X002532Y003107D01*
X003532Y003107D02*
X003532Y005749D01*
X003544Y005761D01*
X004532Y005749D02*
X004544Y005761D01*
X004532Y005749D02*
X004532Y003107D01*
X005532Y003107D02*
X005532Y005749D01*
X005544Y005761D01*
X006532Y005749D02*
X006544Y005761D01*
X006532Y005749D02*
X006532Y003107D01*
X011544Y002261D02*
X014044Y002261D01*
X014044Y003261D02*
X015544Y004761D01*
X019559Y009804D02*
X020544Y009804D01*
D18*
X029284Y001261D02*
X029284Y001257D01*
D19*
X001331Y001335D03*
X034008Y001335D03*
X034008Y022595D03*
M02*
