G75*
G70*
%OFA0B0*%
%FSLAX24Y24*%
%IPPOS*%
%LPD*%
%AMOC8*
5,1,8,0,0,1.08239X$1,22.5*
%
%ADD10C,0.0240*%
%ADD11C,0.0600*%
%ADD12R,0.0760X0.0760*%
%ADD13C,0.0760*%
%ADD14C,0.0660*%
D10*
X002462Y001261D02*
X004257Y001261D01*
X004643Y001646D01*
X005970Y001646D01*
X006793Y002469D01*
X006793Y009595D01*
X006084Y010304D01*
X004687Y010304D01*
X004135Y009457D02*
X003643Y009950D01*
X003643Y010835D01*
X004088Y011280D01*
X004663Y011280D01*
X004336Y011954D02*
X004663Y012280D01*
X004336Y011954D02*
X002423Y011954D01*
X002423Y012954D02*
X002750Y013280D01*
X004663Y013280D01*
X004663Y014280D02*
X004478Y014465D01*
X002380Y014465D01*
X002380Y015465D02*
X004478Y015465D01*
X004663Y015280D01*
X004694Y016249D02*
X004663Y016280D01*
X001706Y016280D01*
X000887Y015461D01*
X000887Y009162D01*
X002403Y007646D01*
X004643Y007646D01*
X004498Y006792D02*
X004643Y006646D01*
X004498Y006792D02*
X002466Y006792D01*
X002466Y005792D02*
X004498Y005792D01*
X004643Y005646D01*
X004643Y004646D02*
X004486Y004489D01*
X002466Y004489D01*
X002466Y003489D02*
X004486Y003489D01*
X004643Y003646D01*
X005395Y002646D02*
X006006Y003257D01*
X006006Y008965D01*
X005513Y009457D01*
X004135Y009457D01*
X008761Y009162D02*
X008761Y007981D01*
X009096Y007646D01*
X009643Y007646D01*
X009643Y008646D02*
X009935Y008646D01*
X016754Y001828D01*
X016789Y001828D01*
X017789Y001828D02*
X017789Y003123D01*
X017765Y003139D01*
X009663Y011280D01*
X011124Y010737D02*
X018765Y003056D01*
X018789Y003040D01*
X018789Y001828D01*
X019789Y001828D02*
X020687Y000930D01*
X020923Y000698D01*
X033761Y000698D01*
X034450Y001387D01*
X034450Y014182D01*
X033604Y015028D01*
X031793Y015028D01*
X031809Y014044D02*
X031793Y014028D01*
X031809Y014044D02*
X033131Y014044D01*
X033958Y013217D01*
X033958Y001583D01*
X033466Y001091D01*
X021490Y001091D01*
X020789Y001792D01*
X020789Y001828D01*
X021789Y001828D02*
X021793Y001828D01*
X018828Y004831D01*
X017915Y004831D01*
X010466Y012280D01*
X009663Y012280D01*
X009663Y013280D02*
X010352Y013280D01*
X018013Y005619D01*
X018998Y005619D01*
X022789Y001828D01*
X021950Y003650D02*
X026805Y008505D01*
X026805Y010812D01*
X026789Y010828D01*
X025805Y010812D02*
X025805Y008883D01*
X021360Y004438D01*
X017856Y006642D02*
X016789Y007709D01*
X016789Y010828D01*
X017789Y010828D02*
X017789Y012383D01*
X017805Y012398D01*
X017423Y012780D01*
X018198Y013780D02*
X018761Y013217D01*
X018761Y010820D01*
X019789Y010828D02*
X019789Y012391D01*
X020179Y012780D01*
X021163Y013296D02*
X021163Y011135D01*
X020856Y010828D01*
X020789Y010828D01*
X021789Y010828D02*
X021789Y011635D01*
X022935Y012780D01*
X023435Y013780D02*
X024017Y013198D01*
X024017Y012087D01*
X022757Y010828D01*
X022789Y010828D01*
X025789Y010828D02*
X025805Y010812D01*
X027789Y010828D02*
X027789Y011394D01*
X026380Y012804D01*
X026675Y013808D02*
X025718Y013808D01*
X025691Y013780D01*
X026675Y013808D02*
X028805Y011678D01*
X028789Y011662D01*
X028789Y010828D01*
X030198Y012028D02*
X031793Y012028D01*
X031793Y010788D01*
X032789Y010828D02*
X032789Y012662D01*
X032805Y012678D01*
X032383Y013099D01*
X031864Y013099D01*
X031793Y013028D01*
X031722Y013099D01*
X030809Y013099D01*
X029521Y014387D01*
X028840Y014387D01*
X028446Y014780D01*
X025691Y014780D01*
X022935Y014780D01*
X020179Y014780D01*
X017423Y014780D01*
X017423Y013780D02*
X018198Y013780D01*
X020179Y013780D02*
X020679Y013780D01*
X021163Y013296D01*
X022935Y013780D02*
X023435Y013780D01*
X022935Y015780D02*
X020179Y015780D01*
X017423Y015780D01*
X014742Y015780D01*
X012502Y018020D01*
X007383Y018020D01*
X005612Y016249D01*
X004694Y016249D01*
X001118Y017430D02*
X001120Y017477D01*
X001126Y017523D01*
X001135Y017569D01*
X001149Y017613D01*
X001166Y017657D01*
X001187Y017698D01*
X001211Y017738D01*
X001238Y017776D01*
X001269Y017811D01*
X001302Y017844D01*
X001338Y017874D01*
X001377Y017900D01*
X001417Y017924D01*
X001459Y017943D01*
X001503Y017960D01*
X001548Y017972D01*
X001594Y017981D01*
X001640Y017986D01*
X001687Y017987D01*
X001733Y017984D01*
X001779Y017977D01*
X001825Y017966D01*
X001869Y017952D01*
X001912Y017934D01*
X001953Y017912D01*
X001993Y017887D01*
X002030Y017859D01*
X002065Y017828D01*
X002097Y017794D01*
X002126Y017757D01*
X002151Y017719D01*
X002174Y017678D01*
X002193Y017635D01*
X002208Y017591D01*
X002220Y017546D01*
X002228Y017500D01*
X002232Y017453D01*
X002232Y017407D01*
X002228Y017360D01*
X002220Y017314D01*
X002208Y017269D01*
X002193Y017225D01*
X002174Y017182D01*
X002151Y017141D01*
X002126Y017103D01*
X002097Y017066D01*
X002065Y017032D01*
X002030Y017001D01*
X001993Y016973D01*
X001954Y016948D01*
X001912Y016926D01*
X001869Y016908D01*
X001825Y016894D01*
X001779Y016883D01*
X001733Y016876D01*
X001687Y016873D01*
X001640Y016874D01*
X001594Y016879D01*
X001548Y016888D01*
X001503Y016900D01*
X001459Y016917D01*
X001417Y016936D01*
X001377Y016960D01*
X001338Y016986D01*
X001302Y017016D01*
X001269Y017049D01*
X001238Y017084D01*
X001211Y017122D01*
X001187Y017162D01*
X001166Y017203D01*
X001149Y017247D01*
X001135Y017291D01*
X001126Y017337D01*
X001120Y017383D01*
X001118Y017430D01*
X007974Y013493D02*
X008761Y014280D01*
X009663Y014280D01*
X007974Y013493D02*
X007974Y006406D01*
X008734Y005646D01*
X008789Y005646D01*
X008368Y005225D01*
X008368Y001288D01*
X008761Y000894D01*
X013486Y000894D01*
X013789Y001198D01*
X013789Y001828D01*
X014935Y002646D02*
X015754Y001828D01*
X015789Y001828D01*
X014935Y002646D02*
X009643Y002646D01*
X009643Y003646D02*
X013580Y003646D01*
X013781Y003650D01*
X012698Y004438D02*
X009852Y004438D01*
X009643Y004646D01*
X009643Y005646D02*
X008789Y005646D01*
X009643Y006646D02*
X010765Y006646D01*
X010769Y006642D01*
X010809Y009123D02*
X010376Y009556D01*
X009155Y009556D01*
X008761Y009162D01*
X013789Y010828D02*
X013789Y011154D01*
X009663Y015280D01*
X011124Y015894D02*
X009738Y017280D01*
X009663Y017280D01*
X009663Y016280D02*
X014805Y011139D01*
X014805Y010828D01*
X014789Y010828D01*
X015789Y010828D02*
X015789Y009221D01*
X015848Y009162D01*
X005395Y002646D02*
X004643Y002646D01*
X002848Y002646D01*
X002462Y002261D01*
X022935Y015780D02*
X025691Y015780D01*
X034033Y015780D01*
X035336Y014477D01*
X035336Y003257D01*
X032777Y003257D02*
X032777Y001804D01*
X034976Y001682D02*
X034978Y001729D01*
X034984Y001775D01*
X034993Y001821D01*
X035007Y001865D01*
X035024Y001909D01*
X035045Y001950D01*
X035069Y001990D01*
X035096Y002028D01*
X035127Y002063D01*
X035160Y002096D01*
X035196Y002126D01*
X035235Y002152D01*
X035275Y002176D01*
X035317Y002195D01*
X035361Y002212D01*
X035406Y002224D01*
X035452Y002233D01*
X035498Y002238D01*
X035545Y002239D01*
X035591Y002236D01*
X035637Y002229D01*
X035683Y002218D01*
X035727Y002204D01*
X035770Y002186D01*
X035811Y002164D01*
X035851Y002139D01*
X035888Y002111D01*
X035923Y002080D01*
X035955Y002046D01*
X035984Y002009D01*
X036009Y001971D01*
X036032Y001930D01*
X036051Y001887D01*
X036066Y001843D01*
X036078Y001798D01*
X036086Y001752D01*
X036090Y001705D01*
X036090Y001659D01*
X036086Y001612D01*
X036078Y001566D01*
X036066Y001521D01*
X036051Y001477D01*
X036032Y001434D01*
X036009Y001393D01*
X035984Y001355D01*
X035955Y001318D01*
X035923Y001284D01*
X035888Y001253D01*
X035851Y001225D01*
X035812Y001200D01*
X035770Y001178D01*
X035727Y001160D01*
X035683Y001146D01*
X035637Y001135D01*
X035591Y001128D01*
X035545Y001125D01*
X035498Y001126D01*
X035452Y001131D01*
X035406Y001140D01*
X035361Y001152D01*
X035317Y001169D01*
X035275Y001188D01*
X035235Y001212D01*
X035196Y001238D01*
X035160Y001268D01*
X035127Y001301D01*
X035096Y001336D01*
X035069Y001374D01*
X035045Y001414D01*
X035024Y001455D01*
X035007Y001499D01*
X034993Y001543D01*
X034984Y001589D01*
X034978Y001635D01*
X034976Y001682D01*
X030198Y012028D02*
X028840Y013387D01*
X034976Y017430D02*
X034978Y017477D01*
X034984Y017523D01*
X034993Y017569D01*
X035007Y017613D01*
X035024Y017657D01*
X035045Y017698D01*
X035069Y017738D01*
X035096Y017776D01*
X035127Y017811D01*
X035160Y017844D01*
X035196Y017874D01*
X035235Y017900D01*
X035275Y017924D01*
X035317Y017943D01*
X035361Y017960D01*
X035406Y017972D01*
X035452Y017981D01*
X035498Y017986D01*
X035545Y017987D01*
X035591Y017984D01*
X035637Y017977D01*
X035683Y017966D01*
X035727Y017952D01*
X035770Y017934D01*
X035811Y017912D01*
X035851Y017887D01*
X035888Y017859D01*
X035923Y017828D01*
X035955Y017794D01*
X035984Y017757D01*
X036009Y017719D01*
X036032Y017678D01*
X036051Y017635D01*
X036066Y017591D01*
X036078Y017546D01*
X036086Y017500D01*
X036090Y017453D01*
X036090Y017407D01*
X036086Y017360D01*
X036078Y017314D01*
X036066Y017269D01*
X036051Y017225D01*
X036032Y017182D01*
X036009Y017141D01*
X035984Y017103D01*
X035955Y017066D01*
X035923Y017032D01*
X035888Y017001D01*
X035851Y016973D01*
X035812Y016948D01*
X035770Y016926D01*
X035727Y016908D01*
X035683Y016894D01*
X035637Y016883D01*
X035591Y016876D01*
X035545Y016873D01*
X035498Y016874D01*
X035452Y016879D01*
X035406Y016888D01*
X035361Y016900D01*
X035317Y016917D01*
X035275Y016936D01*
X035235Y016960D01*
X035196Y016986D01*
X035160Y017016D01*
X035127Y017049D01*
X035096Y017084D01*
X035069Y017122D01*
X035045Y017162D01*
X035024Y017203D01*
X035007Y017247D01*
X034993Y017291D01*
X034984Y017337D01*
X034978Y017383D01*
X034976Y017430D01*
D11*
X002762Y001261D02*
X002162Y001261D01*
X002162Y002261D02*
X002762Y002261D01*
X002766Y003489D02*
X002166Y003489D01*
X002166Y004489D02*
X002766Y004489D01*
X002766Y005792D02*
X002166Y005792D01*
X002166Y006792D02*
X002766Y006792D01*
X002723Y011954D02*
X002123Y011954D01*
X002123Y012954D02*
X002723Y012954D01*
X002680Y014465D02*
X002080Y014465D01*
X002080Y015465D02*
X002680Y015465D01*
X017123Y015780D02*
X017723Y015780D01*
X017723Y014780D02*
X017123Y014780D01*
X017123Y013780D02*
X017723Y013780D01*
X017723Y012780D02*
X017123Y012780D01*
X019879Y012780D02*
X020479Y012780D01*
X022635Y012780D02*
X023235Y012780D01*
X023235Y013780D02*
X022635Y013780D01*
X022635Y014780D02*
X023235Y014780D01*
X023235Y015780D02*
X022635Y015780D01*
X020479Y015780D02*
X019879Y015780D01*
X019879Y014780D02*
X020479Y014780D01*
X020479Y013780D02*
X019879Y013780D01*
X025391Y013780D02*
X025991Y013780D01*
X025991Y014780D02*
X025391Y014780D01*
X025391Y015780D02*
X025991Y015780D01*
X028540Y014387D02*
X029140Y014387D01*
X029140Y013387D02*
X028540Y013387D01*
X025991Y012780D02*
X025391Y012780D01*
X031493Y013028D02*
X032093Y013028D01*
X032093Y014028D02*
X031493Y014028D01*
X031493Y015028D02*
X032093Y015028D01*
X032093Y012028D02*
X031493Y012028D01*
D12*
X004643Y008646D03*
X004663Y017280D03*
D13*
X004663Y016280D03*
X004663Y015280D03*
X004663Y014280D03*
X004663Y013280D03*
X004663Y012280D03*
X004663Y011280D03*
X004663Y010280D03*
X004643Y007646D03*
X004643Y006646D03*
X004643Y005646D03*
X004643Y004646D03*
X004643Y003646D03*
X004643Y002646D03*
X004643Y001646D03*
X009643Y001646D03*
X009643Y002646D03*
X009643Y003646D03*
X009643Y004646D03*
X009643Y005646D03*
X009643Y006646D03*
X009643Y007646D03*
X009643Y008646D03*
X009663Y010280D03*
X009663Y011280D03*
X009663Y012280D03*
X009663Y013280D03*
X009663Y014280D03*
X009663Y015280D03*
X009663Y016280D03*
X009663Y017280D03*
X013789Y010828D03*
X014789Y010828D03*
X015789Y010828D03*
X016789Y010828D03*
X017789Y010828D03*
X018789Y010828D03*
X019789Y010828D03*
X020789Y010828D03*
X021789Y010828D03*
X022789Y010828D03*
X023789Y010828D03*
X024789Y010828D03*
X025789Y010828D03*
X026789Y010828D03*
X027789Y010828D03*
X028789Y010828D03*
X029789Y010828D03*
X030789Y010828D03*
X031789Y010828D03*
X032789Y010828D03*
X032789Y001828D03*
X031789Y001828D03*
X030789Y001828D03*
X029789Y001828D03*
X028789Y001828D03*
X027789Y001828D03*
X026789Y001828D03*
X025789Y001828D03*
X024789Y001828D03*
X023789Y001828D03*
X022789Y001828D03*
X021789Y001828D03*
X020789Y001828D03*
X019789Y001828D03*
X018789Y001828D03*
X017789Y001828D03*
X016789Y001828D03*
X015789Y001828D03*
X014789Y001828D03*
X013789Y001828D03*
D14*
X013781Y003650D03*
X012698Y004438D03*
X010769Y006642D03*
X010809Y009123D03*
X011124Y010737D03*
X015848Y009162D03*
X017856Y006642D03*
X021360Y004438D03*
X021950Y003650D03*
X032777Y003257D03*
X035336Y003257D03*
X011124Y015894D03*
M02*
