%
M48
M72
T01C0.0236
T02C0.0276
T03C0.0315
T04C0.0400
%
T01
X12698Y4438
X13781Y3650
X10769Y6642
X10809Y9123
X11124Y10737
X15848Y9162
X17856Y6642
X21360Y4438
X21950Y3650
X32777Y3257
X35336Y3257
X11124Y15894
T02
X9663Y16280
X9663Y17280
X9663Y15280
X9663Y14280
X9663Y13280
X9663Y12280
X9663Y11280
X9663Y10280
X9643Y8646
X9643Y7646
X9643Y6646
X9643Y5646
X9643Y4646
X9643Y3646
X9643Y2646
X9643Y1646
T03
X13789Y1828
X14789Y1828
X15789Y1828
X16789Y1828
X17789Y1828
X18789Y1828
X19789Y1828
X20789Y1828
X21789Y1828
X22789Y1828
X23789Y1828
X24789Y1828
X25789Y1828
X26789Y1828
X27789Y1828
X28789Y1828
X29789Y1828
X30789Y1828
X31789Y1828
X32789Y1828
X32789Y10828
X31789Y10828
X30789Y10828
X29789Y10828
X28789Y10828
X27789Y10828
X26789Y10828
X25789Y10828
X24789Y10828
X23789Y10828
X22789Y10828
X21789Y10828
X20789Y10828
X19789Y10828
X18789Y10828
X17789Y10828
X16789Y10828
X15789Y10828
X14789Y10828
X13789Y10828
X4663Y11280
X4663Y12280
X4663Y13280
X4663Y14280
X4663Y15280
X4663Y16280
X4663Y17280
X4663Y10280
X4643Y8646
X4643Y7646
X4643Y6646
X4643Y5646
X4643Y4646
X4643Y3646
X4643Y2646
X4643Y1646
T04
X2462Y1261
X2462Y2261
X2466Y3489
X2466Y4489
X2466Y5792
X2466Y6792
X2423Y11954
X2423Y12954
X2380Y14465
X2380Y15465
X17423Y15780
X17423Y14780
X17423Y13780
X17423Y12780
X20179Y12780
X20179Y13780
X20179Y14780
X20179Y15780
X22935Y15780
X22935Y14780
X22935Y13780
X22935Y12780
X25691Y12780
X25691Y13780
X25691Y14780
X25691Y15780
X28840Y14387
X28840Y13387
X31793Y13028
X31793Y14028
X31793Y15028
X31793Y12028
M30
