%
M48
M72
T01C0.0276
T02C0.0320
T03C0.0400
T04C0.0787
%
T01
X6181Y2038
X6181Y3378
X9496Y4948
X9496Y6288
X6200Y7550
X6200Y8890
X1996Y6276
X1996Y4936
T02
X3834Y4413
X2456Y2665
X1456Y2665
X3834Y2413
X7921Y2303
X9027Y2744
X10027Y2744
X7921Y4303
X11618Y4720
X13618Y4720
X14712Y4708
X14712Y3708
X14712Y5708
X13618Y5992
X14712Y6708
X14712Y7708
X13555Y7692
X13570Y8500
X14712Y8708
X11570Y8500
X11555Y7692
X9889Y8405
X8889Y8405
X7629Y8649
X7629Y6649
X3692Y6405
X3692Y8405
X2456Y8421
X1456Y8421
X11618Y5992
T03
X11649Y2381
X11649Y1381
T04
X1007Y1007
X1007Y10063
X17149Y10063
X17149Y1007
M30
